<?xml version="1.0" standalone="no"?>
<svg viewBox="0 0 200 200" xmlns="http://www.w3.org/2000/svg">
  <path fill="#8A3641" d="M43.9,-76C57.9,-67.9,71.1,-58.3,75.1,-45.4C79.1,-32.5,73.8,-16.2,72.9,-0.6C71.9,15.1,75.2,30.2,70.1,41.1C64.9,52,51.3,58.6,38.2,63.4C25.1,68.2,12.6,71.1,-0.7,72.2C-13.9,73.4,-27.7,72.7,-39.9,67.4C-52,62.1,-62.5,52.1,-71.1,40.1C-79.8,28.1,-86.6,14,-86.9,-0.2C-87.2,-14.4,-81,-28.8,-72.5,-41C-64,-53.3,-53.2,-63.4,-40.8,-72.4C-28.3,-81.4,-14.2,-89.3,0.4,-90C14.9,-90.7,29.8,-84.1,43.9,-76Z" transform="translate(100 100)" />
</svg>
