<?xml version="1.0" standalone="no"?>
<svg viewBox="0 0 200 200" xmlns="http://www.w3.org/2000/svg">
  <path fill="#FFB13B" d="M35.4,-62C49,-53.4,65.4,-50.3,70.7,-40.9C76,-31.5,70.1,-15.8,65.6,-2.6C61.1,10.5,57.9,21.1,52.6,30.4C47.3,39.7,39.8,47.9,30.7,58.2C21.6,68.5,10.8,80.9,-2.7,85.6C-16.1,90.2,-32.3,87.1,-41.6,76.9C-50.8,66.6,-53.3,49.4,-58.9,35.4C-64.6,21.4,-73.6,10.7,-74.3,-0.4C-74.9,-11.5,-67.2,-22.9,-59.2,-32.8C-51.1,-42.6,-42.6,-50.8,-32.7,-61.6C-22.7,-72.3,-11.4,-85.6,-0.2,-85.2C10.9,-84.8,21.8,-70.6,35.4,-62Z" transform="translate(100 100)" />
</svg>
